<svg width="102" height="126" viewBox="0 0 102 126" fill="none" xmlns="http://www.w3.org/2000/svg">
<path d="M84.9049 66.885C85.0789 85.685 101.399 91.942 101.579 92.022C101.441 92.462 98.9719 100.938 92.9819 109.691C87.8039 117.259 82.4289 124.799 73.9639 124.957C65.6459 125.109 62.9709 120.023 53.4599 120.023C43.9519 120.023 40.9809 124.799 33.1059 125.109C24.9339 125.419 18.7109 116.924 13.4899 109.385C2.82191 93.961 -5.33109 65.8 5.61591 46.791C11.0539 37.351 20.7739 31.374 31.3229 31.22C39.3469 31.067 46.9209 36.618 51.8259 36.618C56.7279 36.618 65.9319 29.942 75.6079 30.922C79.6589 31.091 91.0289 32.558 98.3299 43.246C97.7429 43.611 84.7639 51.167 84.9049 66.885ZM69.2719 20.719C73.6099 15.468 76.5299 8.156 75.7339 0.883003C69.4799 1.134 61.9179 5.05 57.4329 10.299C53.4129 14.946 49.8929 22.386 50.8419 29.515C57.8129 30.055 64.9329 25.973 69.2719 20.719Z" fill="#29C13E"/>
</svg>
