<svg width="124" height="128" viewBox="0 0 124 128" fill="none" xmlns="http://www.w3.org/2000/svg">
<path d="M42.59 4.21C56.4186 -0.537434 71.4559 -0.40686 85.2 4.58C92.7479 7.40611 99.6635 11.6948 105.55 17.2C103.55 19.34 101.44 21.34 99.4 23.42C95.52 27.2933 91.6433 31.1533 87.77 35C83.9089 31.3068 79.238 28.5672 74.13 27C67.5937 25.0264 60.6402 24.8913 54.0322 26.6094C47.4242 28.3276 41.4171 31.8326 36.67 36.74C32.5263 40.9554 29.3883 46.0522 27.49 51.65L6.75999 35.6C14.1801 20.8856 27.0275 9.63024 42.59 4.21Z" fill="#29C13E"/>
<path d="M1.25999 51.5C2.37339 45.9777 4.22325 40.6299 6.75999 35.6L27.49 51.69C24.7789 59.6762 24.7789 68.3338 27.49 76.32C20.5833 81.6533 13.6733 87.0133 6.75999 92.4C0.411498 79.7632 -1.52468 65.365 1.25999 51.5Z" fill="#29C13E"/>
<path d="M63.27 52.15H122.79C124.825 63.3194 124.274 74.8065 121.18 85.73C118.332 95.7748 112.801 104.853 105.18 111.99C98.49 106.77 91.77 101.59 85.08 96.37C88.3967 94.1328 91.2277 91.2489 93.4031 87.8913C95.5785 84.5337 97.0536 80.7714 97.74 76.83H63.27C63.26 68.61 63.27 60.38 63.27 52.15Z" fill="#29C13E"/>
<path d="M6.74999 92.4C13.6633 87.0667 20.5733 81.7067 27.48 76.32C30.1521 84.162 35.234 90.9589 42 95.74C46.2195 98.7237 51.0149 100.794 56.08 101.82C61.0705 102.748 66.1895 102.748 71.18 101.82C76.1563 100.979 80.9014 99.1054 85.11 96.32C91.8 101.54 98.52 106.72 105.21 111.94C97.8889 118.597 88.9642 123.239 79.31 125.41C68.6541 127.915 57.5492 127.795 46.95 125.06C38.567 122.822 30.7367 118.876 23.95 113.47C16.7673 107.766 10.9003 100.579 6.74999 92.4Z" fill="#29C13E"/>
</svg>
