<svg id="Layer_1" data-name="Layer 1" xmlns="http://www.w3.org/2000/svg" viewBox="0 0 200 200"><defs><style>.cls-1{fill:#242935;}.cls-2{fill:#29c13e;}.cls-3{fill:none;}</style></defs><title>gift</title><path class="cls-1" d="M23.78,74.83H176.22a0,0,0,0,1,0,0v96.1a16.58,16.58,0,0,1-16.58,16.58H40.36a16.58,16.58,0,0,1-16.58-16.58V74.83A0,0,0,0,1,23.78,74.83Z"/><path class="cls-2" d="M23.78,176.07A11.43,11.43,0,0,0,35.21,187.5H88.57V92.22H23.78Z"/><path class="cls-2" d="M111.43,187.5h53.36a11.43,11.43,0,0,0,11.43-11.43V92.22H111.43Z"/><path class="cls-3" d="M155.23,36.16A11.13,11.13,0,0,0,147,24.37a11.45,11.45,0,0,0-10.82,2.76l-19,17.26a1.27,1.27,0,0,1,0,.2v1.9h26.34C149.44,46.49,154.8,42.1,155.23,36.16Z"/><path class="cls-3" d="M82.85,44.42,63.52,26.89A11,11,0,0,0,51.21,25,11.25,11.25,0,0,0,56,46.49H82.85V44.42Z"/><polygon class="cls-3" points="117.15 46.49 143.48 46.49 143.49 46.49 117.15 46.49 117.15 46.49"/><path class="cls-1" d="M45,32.47A11.25,11.25,0,0,1,51.21,25a11,11,0,0,1,12.31,1.86L82.85,44.42v2.07h34.3v-1.9a1.27,1.27,0,0,0,0-.2l19-17.26A11.45,11.45,0,0,1,147,24.37a11.13,11.13,0,0,1,8.23,11.79c-.43,5.94-5.79,10.33-11.74,10.33h20a20.35,20.35,0,0,0,3.11-8.81,22.69,22.69,0,0,0-37.8-19.26L112.66,33a17.13,17.13,0,0,0-25.33,0L71.19,18.42a22.7,22.7,0,0,0-37.8,19.26,20.35,20.35,0,0,0,3.11,8.81H56A11.28,11.28,0,0,1,45,32.47Z"/><path class="cls-2" d="M176.22,46.49H23.78A11.44,11.44,0,0,0,12.35,57.93V75.08a5.71,5.71,0,0,0,5.71,5.71H181.94a5.71,5.71,0,0,0,5.71-5.71V57.93A11.44,11.44,0,0,0,176.22,46.49Z"/></svg>