<svg id="Layer_1" data-name="Layer 1" xmlns="http://www.w3.org/2000/svg" viewBox="0 0 200 200"><defs><style>.cls-1{fill:#242935;}.cls-2{fill:#29c13e;}</style></defs><title>history</title><rect class="cls-1" x="105.84" y="12.76" width="35.14" height="55.54"/><path class="cls-2" d="M57,12.76h50.28V63.52c0,3.56,3.59,5.31,6.4.85l9.91-15.85,9.9,15.85c2.79,4.48,6.4,2.71,6.4-.85V12.76h15A10.14,10.14,0,0,1,165,22.88v154A10.14,10.14,0,0,1,154.9,187H57a22,22,0,0,1-22-22V34.81A22.05,22.05,0,0,1,57,12.76Z"/><path class="cls-1" d="M156.69,170.26H61.17a4.18,4.18,0,0,1,0-8.34l95.52-.12v-7.63a1.75,1.75,0,0,0-1.74-1.74h-98a13.62,13.62,0,0,0,0,27.24h98a1.77,1.77,0,0,0,1.23-.5,1.71,1.71,0,0,0,.49-1.22Z"/></svg>