<svg id="Layer_1" data-name="Layer 1" xmlns="http://www.w3.org/2000/svg" viewBox="0 0 200 200"><defs><style>.cls-1{fill:#fff;}.cls-2{fill:#242935;opacity:0.5;}.cls-3{fill:#29c13e;}.cls-4{font-size:28.48px;fill:#f4f4f4;font-family:Rubik-Medium, Rubik;font-weight:500;}</style></defs><title>profile</title><circle class="cls-1" cx="100" cy="97" r="76"/><path class="cls-2" d="M117.4,102.23a31.45,31.45,0,1,0-34.8,0h0a60.34,60.34,0,0,0-41.14,43.25h0c.83,1,1.69,2,2.56,2.93.22.24.44.46.66.69.67.71,1.36,1.42,2.06,2.11l.88.85c.65.61,1.31,1.22,2,1.82l1,.87c.65.57,1.32,1.12,2,1.66l1.07.84c.69.53,1.39,1.05,2.09,1.55.37.26.72.53,1.09.78.75.51,1.51,1,2.27,1.49.34.22.68.45,1,.66.88.54,1.78,1.06,2.68,1.57l.72.41c1.17.64,2.35,1.25,3.56,1.83l.09,0c1.15.55,2.32,1.07,3.5,1.57l1.11.43c.85.34,1.71.68,2.58,1l1.39.47c.79.27,1.59.53,2.39.77l1.53.43c.78.22,1.56.42,2.35.61l1.6.37c.79.17,1.58.33,2.38.48l1.62.29c.83.13,1.65.24,2.48.35l1.58.2c.91.1,1.84.17,2.76.23l1.34.11q2.07.12,4.17.12t4.17-.12c.45,0,.89-.07,1.34-.1.92-.07,1.85-.14,2.76-.24.53,0,1-.13,1.58-.2.83-.1,1.65-.22,2.48-.35l1.62-.29c.8-.14,1.59-.3,2.38-.47l1.6-.37,2.35-.61,1.53-.44c.8-.24,1.6-.5,2.39-.76.46-.16.93-.31,1.39-.48.87-.31,1.73-.64,2.58-1l1.11-.44c1.18-.49,2.34-1,3.49-1.56l.1-.05c1.21-.58,2.39-1.19,3.56-1.83l.72-.41c.9-.5,1.8-1,2.68-1.57l1-.65c.76-.49,1.52-1,2.27-1.5l1.09-.78c.7-.5,1.4-1,2.09-1.54.36-.28.72-.56,1.07-.85.68-.54,1.35-1.09,2-1.66.34-.28.68-.57,1-.87.67-.59,1.33-1.2,2-1.82l.88-.84c.7-.7,1.39-1.4,2.06-2.12l.66-.68c.87-1,1.73-1.94,2.56-2.93h0A60.33,60.33,0,0,0,117.4,102.23Z"/><circle class="cls-3" cx="145.5" cy="161.5" r="17.5"/><text class="cls-4" transform="translate(136.18 169.95)">+</text></svg>